<svg id="Layer_1" data-name="Layer 1" xmlns="http://www.w3.org/2000/svg" viewBox="0 0 58.07 60.03"><defs><style>.cls-1{fill:#fcf7f7;}</style></defs><path class="cls-1" d="M2.51,10C1.49,15.24.59,28.68.62,34c0,4.35.41,8.86,2.08,12.92a16.64,16.64,0,0,0,8.56,8.94c4.55,2.08,9.76,2.8,14.67,3.51,5.21.74,10.58,1,15.73-.24A20.92,20.92,0,0,0,53.25,52a24.15,24.15,0,0,0,4.67-12.89c.54-6.29-.77-12.56-1.93-18.7q-1.87-10-3.78-20c-.09-.5-.77-.5-1-.13C49.4,3,47.45,5.94,44.57,7.67c-3.49,2.09-8.1,1.43-12,1.41q-6.34,0-12.67-.12c-2,0-4.09,0-6.11-.14A6.34,6.34,0,0,1,9.16,6.6c-2-2.37-1.47-3.54-4.07-5.41-.58-.42-.92.32-.34.74,2.5,1.8,1.74,3.29,3.72,5.56,2.52,2.89,6.4,2.5,9.91,2.56q6.89.12,13.78.15c2.3,0,4.6.05,6.9,0a12.72,12.72,0,0,0,5.23-1.1C47.81,7.42,50.11,4,52.17.81l-1-.13,3.11,16.56c1,5.48,2.28,11,2.59,16.55a28.35,28.35,0,0,1-2.43,14.28,18.46,18.46,0,0,1-10.18,9.08,32.39,32.39,0,0,1-14.76,1.53,73.26,73.26,0,0,1-15-2.76c-4.34-1.38-8-3.91-10.14-8-1.93-3.75-2.47-8.08-2.6-12.23C1.6,30.12,2,24.52,2.26,19c.25-6.3,1.6-11,2.89-17.31.21-1-1-.56-1,.15" transform="translate(-0.01 0.03)"/><path class="cls-1" d="M46.77,17.79c-4.41-1-8.61,1.91-11.19,5.27a8.61,8.61,0,0,0-2.11,6.06,7.92,7.92,0,0,0,3.16,5.11A11.06,11.06,0,0,0,48.1,35.86a9.41,9.41,0,0,0,5.4-9.52C52.87,22,49,18.53,44.8,17.65c-.69-.14-1,.93-.29,1.08A10.16,10.16,0,0,1,52,24.86a7.94,7.94,0,0,1-2.74,9A9.4,9.4,0,0,1,39,34.48a9.22,9.22,0,0,1-3.88-3.67A6,6,0,0,1,35.61,25c2.1-3.56,6.5-7.12,10.86-6.09.69.16,1-.91.29-1.08Z" transform="translate(-0.01 0.03)"/><path class="cls-1" d="M17.69,17.79c-4.42-1-8.61,1.91-11.19,5.27a8.62,8.62,0,0,0-2.12,6.06,7.94,7.94,0,0,0,3.17,5.11A11,11,0,0,0,19,35.86a9.4,9.4,0,0,0,5.41-9.52c-.63-4.39-4.48-7.81-8.7-8.69-.7-.14-1,.93-.29,1.08a10.18,10.18,0,0,1,7.47,6.13,7.94,7.94,0,0,1-2.74,9,9.4,9.4,0,0,1-10.23.64,9.14,9.14,0,0,1-3.87-3.67A5.92,5.92,0,0,1,6.54,25c2.09-3.56,6.49-7.12,10.85-6.09.69.16,1-.91.29-1.08Z" transform="translate(-0.01 0.03)"/><path class="cls-1" d="M42.18,24.58a3.68,3.68,0,0,0-.13,4.24.56.56,0,0,0,.77.2l.1-.08a3.37,3.37,0,0,0,.25-4.55.55.55,0,0,0-.87.11,4.7,4.7,0,0,0-.55,3.58,1.17,1.17,0,0,0,1.86.66c1.82-1.22,1-4.21-.32-5.44a.54.54,0,0,0-.78,0,4.44,4.44,0,0,0-1.14,3.6c.14.93.67,2.36,1.87,2.14s1.46-1.55,1.53-2.48a3,3,0,0,0-1.3-2.95.56.56,0,0,0-.67.09,5,5,0,0,0-.66,5.56.57.57,0,0,0,1,0,5.94,5.94,0,0,0,1.07-3.9.55.55,0,0,0-.57-.55l-.13,0a1.4,1.4,0,0,0-1,1.73,1.3,1.3,0,0,0,.39.64c.52.49,1.31-.3.78-.78l.09-.52-.7-.54a5,5,0,0,1-.92,3.34h1a3.8,3.8,0,0,1,.49-4.21l-.67.09a1.68,1.68,0,0,1,.75,1.58c0,.33-.06,1.73-.57,1.78s-.67-1.46-.65-1.78a3.25,3.25,0,0,1,.85-2.06h-.78A3.1,3.1,0,0,1,43.46,27c0,.18-.16.67-.32.75-.4.18-.4-.36-.4-.59a3.83,3.83,0,0,1,.52-2l-.87.11a2.24,2.24,0,0,1-.25,3l.88.11a2.64,2.64,0,0,1,.13-3.13c.43-.57-.53-1.12-1-.56Z" transform="translate(-0.01 0.03)"/><path class="cls-1" d="M13.16,24.35a14.81,14.81,0,0,0-.38,4.6.57.57,0,0,0,.58.55.77.77,0,0,0,.26-.07,3.38,3.38,0,0,0,.46-5.75.57.57,0,0,0-.76.2C12.71,25,12,26.72,12.45,28a1.29,1.29,0,0,0,2.13.41,2.68,2.68,0,0,0,.68-1.76,11.83,11.83,0,0,0,.27-2.29c0-.84-1-2.07-1.91-1.27-.48.43-.62,1.38-.86,2a4.37,4.37,0,0,0-.44,1.85,2.18,2.18,0,0,0,1.78,2.26,2.49,2.49,0,0,0,2.45-1.63A5.37,5.37,0,0,0,16,23.32c-.71-1.21-1.87-1-2.41.18a6.43,6.43,0,0,0-.12,4.91.56.56,0,0,0,.93.25,3.87,3.87,0,0,0,.6-4.41.54.54,0,0,0-.76-.19.52.52,0,0,0-.2.19,3,3,0,0,0,0,2.89c.33.64,1.29.07,1-.56a1.86,1.86,0,0,1,0-1.76H14a2.71,2.71,0,0,1-.44,3.06l.93.25a5.52,5.52,0,0,1-.22-3.36,2.17,2.17,0,0,1,.27-.76c0-.33.16-.35.35-.05a.48.48,0,0,1,.3.4,4.52,4.52,0,0,1,.42,2,1.74,1.74,0,0,1-.9,1.61c-.78.36-1.3-.34-1.33-1.05-.06-1.11.75-2.19,1.06-3.24l-.39.39c.48-.19.18,1.58.15,1.76s0,1.18-.22,1.37c-.89.84-.47-.94-.41-1.19a6.14,6.14,0,0,1,.65-1.54l-.76.2A2.25,2.25,0,0,1,13,28.47l.83.48a13.84,13.84,0,0,1,.34-4.3c.16-.69-.91-1-1.07-.29Z" transform="translate(-0.01 0.03)"/><path class="cls-1" d="M29.87,33.83c-.73-1.51-2.59,0-3.2.79-.88,1.17-1.1,3,.67,3.42,1.44.33,3.4-.18,4.1-1.56a2.26,2.26,0,0,0-1.14-3.2c-1.46-.42-3.16.84-3.67,2.17a1.69,1.69,0,0,0,.2,1.78,2.58,2.58,0,0,0,2.22.49c1.38-.15,2.86-1.19,2.37-2.76s-2.57-1.35-3.34-.24C27.19,36,28.9,38,30,36.59c.37-.47.46-1.39-.18-1.7s-1.55.42-1.9,1a.57.57,0,0,0,.21.77.64.64,0,0,0,.27.07A1.86,1.86,0,0,0,30,35.81a.56.56,0,0,0-.21-.76l-.13,0a1.22,1.22,0,0,0-1.55.77,1.61,1.61,0,0,0-.06.44.58.58,0,0,0,.41.54,1.57,1.57,0,0,0,1.64-.31c.56-.44-.23-1.22-.79-.78a.48.48,0,0,1-.55,0l.4.53.21-.14L29,35.25a.64.64,0,0,1-.61.33l.48.83a1.13,1.13,0,0,1,.81-.51l-.54-.14-.16.07a.3.3,0,0,1,0-.39.59.59,0,0,1,.39-.36c.39-.17.94-.13,1,.36.14.89-1,1.16-1.68,1.2-.32,0-.95.09-1.12-.27s.18-.76.34-1c.42-.56,1.49-1.41,2.23-1a1.27,1.27,0,0,1,.24,1.67,2.49,2.49,0,0,1-2,.93c-.37,0-1.07.05-1.28-.35s.05-.74.2-1,1.35-1.76,1.59-1.26,1.28.08,1-.56Z" transform="translate(-0.01 0.03)"/><path class="cls-1" d="M28.82,36.81c0,2.86-.13,8.39-.29,11.25-.15,2.65-2.34,3.65-4.76,2.21-.62-.36-1.11.53-.53.94,1.87,1.29,5.68.72,6-1.78a123.79,123.79,0,0,0,.66-12.63.56.56,0,0,0-1.11,0Z" transform="translate(-0.01 0.03)"/><path class="cls-1" d="M28.3,49.58c.87,2.21,2.42,3.28,5.85,1.9,1.78-.72.4-1.68-.07-1.29-1.49,1.28-4.37,1.12-4.71-.9-.11-.7-1.33-.37-1.07.29Z" transform="translate(-0.01 0.03)"/><path class="cls-1" d="M24.92,28a7.59,7.59,0,0,1,8.83.13c.58.42,1.14-.54.56-1a8.68,8.68,0,0,0-10-.14C23.78,27.47,24.33,28.43,24.92,28Z" transform="translate(-0.01 0.03)"/><path class="cls-1" d="M38.47,36.82a10.29,10.29,0,0,1-5.07-11.2,11.41,11.41,0,0,1,8.9-8.87c4.46-.81,8.23,1.95,10.18,5.79,1.87,3.68,2.67,9.29-.72,12.37a13.47,13.47,0,0,1-5.85,2.63,9.66,9.66,0,0,1-4.09.45,10.35,10.35,0,0,1-3.46-1.54c-2-1.29-3.94-2.88-4.42-5.36a11.63,11.63,0,0,1,.61-6.23C36,21,39.4,17.94,43.64,17.93a9.35,9.35,0,0,1,5.21,1.52,8.85,8.85,0,0,1,3.45,5.29C53,27,53.68,29.58,53.13,32c-.63,2.74-3.08,3.91-5.61,4.49-2.83.66-5.72.93-8.33-.58a21.63,21.63,0,0,1-5.43-5.07l-.79.78c3.34,3.51,8.28,6,13.23,5.34,4.12-.57,7.77-3.83,7.92-8.13,0-.72-1.09-.71-1.11,0-.15,4.1-3.94,6.91-7.81,7.12-4.35.22-8.51-2.05-11.44-5.12-.5-.52-1.24.25-.79.79a22.28,22.28,0,0,0,5.8,5.33c2.6,1.45,5.37,1.35,8.2.79,2.34-.46,4.84-1.23,6.28-3.28s1.32-4.5.91-6.77c-.45-2.42-1.06-5.16-2.56-7.14a9.51,9.51,0,0,0-5.21-3.36A10.57,10.57,0,0,0,35,21.61c-2.61,3.78-3.56,9.83-.18,13.43a13.52,13.52,0,0,0,6.91,4c2.5.42,5.58-.59,7.88-1.56a8.63,8.63,0,0,0,4.95-4.8,12.43,12.43,0,0,0,.19-7.27c-1.08-4.42-4.23-8.89-8.95-9.79-5.62-1.07-11,2.82-13,8a11.53,11.53,0,0,0,5.1,14.13c.63.34,1.19-.62.56-1Z" transform="translate(-0.01 0.03)"/><path class="cls-1" d="M23.29,28l.43.5a.56.56,0,0,0,.93-.24l.4-2.54L24,25.57c.28,3.07.3,6.1-1.94,8.49a9.7,9.7,0,0,1-6.86,3c-5.07.12-10.11-3.34-11-8.5C3.24,22.91,8,17.89,13.57,17.77a11.24,11.24,0,0,1,11.14,10c.38,3-.63,5.85-3.39,7.37s-5.84,1.31-8.77,1c-1.48-.17-3.27-.19-4.39-1.31a9.21,9.21,0,0,1-1.85-4c-.95-3.09-1.24-6.1.74-8.86A10.33,10.33,0,0,1,21.8,20,9.41,9.41,0,0,1,22,33.9a10.16,10.16,0,0,1-15.32-2,8.58,8.58,0,0,1,5.87-13.25c.7-.08.71-1.19,0-1.11a9.74,9.74,0,0,0-8,12.54,11.22,11.22,0,0,0,14.19,7,10.72,10.72,0,0,0,6.47-14.28c-2.62-6-10.13-7.75-15.57-4.63a10.33,10.33,0,0,0-5.24,7.24,12.83,12.83,0,0,0,.65,5.35A13.31,13.31,0,0,0,7,35.11,5.52,5.52,0,0,0,11,37a31.12,31.12,0,0,0,5.86.41c3-.18,6.1-1.28,7.81-3.87s1.41-6.32.27-9.15a12.46,12.46,0,0,0-6-6.59C13.22,15,6,17.45,3.66,23.53s1.56,12.15,7.37,14c5.38,1.77,12.38-.58,13.9-6.51a15.87,15.87,0,0,0,.14-5.5c-.05-.58-1-.82-1.09-.15L23.57,28l.93-.24-.42-.51c-.46-.55-1.25.24-.79.78Z" transform="translate(-0.01 0.03)"/><path class="cls-1" d="M57.53,23.61a1.78,1.78,0,0,0-2.52.08h0a.56.56,0,0,0,.24.93,4.07,4.07,0,0,0,2.55-.29l-.56-1a2.47,2.47,0,0,1-1.63.54.56.56,0,0,0,0,1.12,3.45,3.45,0,0,0,2.19-.7.57.57,0,0,0,.2-.76.55.55,0,0,0-.76-.2,2.8,2.8,0,0,1-1.69.18l.24.93a.66.66,0,0,1,.94-.09h0c.53.48,1.32-.3.79-.79Z" transform="translate(-0.01 0.03)"/><path class="cls-1" d="M.54,24.16a.56.56,0,0,0,0,1.11c.79,0,3.25,1,2.19-.69" transform="translate(-0.01 0.03)"/><path class="cls-1" d="M36.55,41.92a57.11,57.11,0,0,1,8.36-.67.56.56,0,0,0,0-1.11,58.59,58.59,0,0,0-8.67.7.56.56,0,1,0,.3,1.07Z" transform="translate(-0.01 0.03)"/><path class="cls-1" d="M36.42,44.8a29.09,29.09,0,0,1,9.15.91.55.55,0,0,0,.29-1.07,29.73,29.73,0,0,0-9.44-1C35.71,43.74,35.7,44.85,36.42,44.8Z" transform="translate(-0.01 0.03)"/><path class="cls-1" d="M21.9,41.25A54.85,54.85,0,0,1,11.81,41a.56.56,0,0,0-.55.56.57.57,0,0,0,.55.56,55.75,55.75,0,0,0,10.09.22.56.56,0,0,0,.55-.56A.55.55,0,0,0,21.9,41.25Z" transform="translate(-0.01 0.03)"/><path class="cls-1" d="M21.54,44.15a86.33,86.33,0,0,0-9.51.68.58.58,0,0,0-.56.56A.57.57,0,0,0,12,46a81.7,81.7,0,0,1,9.51-.68.56.56,0,0,0,0-1.12Z" transform="translate(-0.01 0.03)"/></svg>